<?xml version="1.0" standalone="no"?>
<!DOCTYPE svg PUBLIC "-//W3C//DTD SVG 20010904//EN"
 "http://www.w3.org/TR/2001/REC-SVG-20010904/DTD/svg10.dtd">
<svg version="1.0" xmlns="http://www.w3.org/2000/svg"
 width="1024.000000pt" height="1024.000000pt" viewBox="0 0 1024.000000 1024.000000"
 preserveAspectRatio="xMidYMid meet">
<metadata>
Created by potrace 1.14, written by Peter Selinger 2001-2017
</metadata>
<g transform="translate(0.000000,1024.000000) scale(0.100000,-0.100000)"
fill="#000000" stroke="none">
<path d="M0 5120 l0 -5120 5120 0 5120 0 0 5120 0 5120 -5120 0 -5120 0 0
-5120z m4838 3811 c-37 -6 -37 -6 -13 -18 14 -6 23 -7 19 -2 -3 5 2 9 10 9 18
0 21 -16 5 -25 -6 -4 -8 -12 -6 -19 3 -7 -7 -11 -28 -12 -25 0 -31 3 -28 16 4
14 -7 15 -94 9 -123 -9 -258 -32 -369 -65 -71 -20 -89 -22 -103 -12 -14 11
-14 11 -3 -3 11 -15 9 -18 -17 -27 -25 -9 -29 -8 -26 6 2 10 4 23 4 29 1 20
49 39 166 66 148 35 253 50 308 46 25 -2 43 -1 40 4 -2 4 35 6 84 6 59 -1 76
-4 51 -8z m69 3 c-3 -3 -12 -4 -19 -1 -8 3 -5 6 6 6 11 1 17 -2 13 -5z m492
-42 c58 -16 64 -20 75 -53 7 -21 63 -91 134 -170 96 -106 118 -136 109 -147
-9 -12 -17 -7 -42 24 -16 21 -74 90 -127 152 -54 62 -98 120 -98 127 0 19
-139 55 -215 55 -28 0 -32 3 -28 23 4 23 7 23 66 15 34 -4 91 -16 126 -26z
m-485 13 c18 -13 15 -35 -5 -35 -6 0 -7 5 -4 11 4 6 -1 17 -11 24 -11 8 -14
14 -9 14 6 0 18 -6 29 -14z m82 -17 c5 -7 2 -9 -8 -5 -9 3 -21 0 -27 -6 -8 -8
-11 -8 -11 0 0 10 14 20 32 22 4 1 10 -4 14 -11z m104 -12 c0 -2 -7 -7 -16
-10 -8 -3 -12 -2 -9 4 6 10 25 14 25 6z m100 -46 c0 -5 -5 -10 -11 -10 -6 0
-8 -7 -5 -16 5 -13 4 -14 -7 -6 -11 10 -19 1 -40 -41 -41 -83 -60 -130 -63
-156 -2 -13 -9 -28 -16 -32 -10 -7 -10 -9 1 -9 11 0 12 -3 4 -11 -6 -6 -9 -18
-6 -27 5 -11 3 -13 -7 -7 -9 5 -11 4 -6 -3 4 -6 0 -24 -7 -39 -8 -15 -25 -67
-37 -116 -20 -81 -21 -96 -10 -199 6 -61 13 -115 15 -119 3 -3 6 -28 7 -53 0
-26 5 -49 10 -52 4 -3 8 -23 8 -44 0 -43 0 -44 60 -290 39 -161 90 -325 184
-584 26 -71 45 -131 43 -133 -7 -6 -124 308 -172 462 -59 188 -137 497 -161
635 l-19 105 -11 -90 c-7 -49 -19 -136 -28 -193 -31 -201 -16 -568 35 -850 11
-63 19 -121 17 -130 -5 -22 -45 191 -64 338 -33 254 -30 471 11 770 17 126 26
245 19 238 -2 -3 -6 -14 -9 -24 -4 -22 -61 -259 -69 -289 -17 -64 9 125 34
241 50 244 220 703 266 721 8 3 11 9 8 14 -3 5 2 9 10 9 9 0 16 -4 16 -10z
m-140 -4 c0 -2 -8 -10 -17 -17 -16 -13 -17 -12 -4 4 13 16 21 21 21 13z m60
-36 c-11 -16 -26 -33 -32 -36 -7 -4 1 9 16 29 34 44 46 50 16 7z m-160 -38
c-25 -20 -83 -71 -130 -112 -47 -41 -78 -66 -70 -56 19 24 230 206 239 206 3
0 -14 -17 -39 -38z m209 -26 c-7 -19 -17 -32 -22 -29 -6 3 -7 1 -3 -5 3 -5 -1
-41 -10 -79 -24 -99 -13 -315 22 -449 65 -252 204 -624 375 -1007 21 -48 39
-91 39 -95 -3 -34 -243 532 -319 749 -119 341 -177 588 -169 714 6 81 64 247
79 224 7 -11 9 -10 9 5 0 11 3 17 6 13 3 -3 0 -21 -7 -41z m-101 -16 c-7 -10
-14 -17 -17 -15 -4 4 18 35 25 35 2 0 -1 -9 -8 -20z m-1496 -24 c64 -17 115
-33 113 -36 -2 -4 10 -4 27 -2 18 3 28 1 25 -5 -10 -17 57 -1 87 20 16 12 26
16 22 9 -4 -7 -2 -12 6 -12 7 0 -2 -8 -20 -17 -18 -8 -30 -18 -28 -21 3 -3 11
-1 19 4 7 5 4 1 -6 -8 -11 -10 -24 -15 -30 -11 -5 3 -7 1 -4 -4 8 -13 -15 -34
-40 -37 -10 -2 -18 -7 -18 -12 0 -19 -17 -35 -31 -30 -8 3 -13 0 -11 -7 1 -7
-4 -11 -11 -9 -8 1 -11 -1 -8 -6 3 -5 -14 -24 -37 -43 -41 -34 -79 -60 -65
-44 4 4 0 14 -10 22 -9 8 -11 12 -4 8 12 -6 42 16 42 32 0 5 17 25 38 44 l37
34 -35 -40 c-27 -31 -29 -34 -7 -15 16 14 41 44 57 67 l28 41 -148 37 c-113
28 -149 41 -153 54 -6 25 23 22 165 -13z m1448 -63 c-11 -17 -11 -17 -6 0 3
10 6 24 7 30 0 9 2 9 5 0 3 -7 0 -20 -6 -30z m1059 5 c203 -114 341 -206 626
-414 184 -135 401 -289 461 -327 39 -24 42 -30 52 -89 6 -35 14 -93 17 -129
l7 -66 166 -180 c92 -99 281 -297 420 -441 140 -143 260 -268 267 -279 11 -16
6 -48 -37 -226 l-50 -207 35 -43 c19 -23 60 -69 91 -102 30 -32 54 -61 52 -63
-2 -2 -26 4 -52 13 -27 8 -96 26 -153 38 l-104 24 -36 49 c-31 44 -219 274
-291 356 l-25 29 -256 -258 c-140 -142 -293 -298 -340 -348 -47 -49 -172 -180
-278 -290 -107 -110 -210 -219 -229 -243 -33 -40 -35 -46 -22 -65 146 -231
538 -876 756 -1244 307 -518 854 -1481 854 -1504 0 -13 -38 -11 -295 15 l-230
24 -184 -59 c-101 -33 -185 -58 -187 -56 -2 2 5 12 16 22 36 33 19 121 -51
273 -22 46 -39 87 -39 93 0 5 -4 9 -8 9 -4 0 -14 17 -21 37 -8 21 -29 62 -48
91 -19 30 -36 67 -40 82 -3 16 -11 31 -19 34 -8 3 -14 11 -14 18 0 7 -11 33
-25 58 -26 48 -60 116 -69 140 -3 8 -10 22 -15 30 -5 8 -31 58 -57 110 -45 90
-84 167 -103 200 -5 8 -24 45 -42 82 -19 37 -38 68 -42 68 -5 0 -6 4 -3 9 4 5
-5 23 -19 39 -14 16 -25 35 -25 41 0 6 -15 34 -33 63 -19 29 -37 60 -41 68 -4
8 -17 32 -29 52 -12 20 -33 56 -46 80 -13 24 -26 45 -30 48 -3 3 -15 22 -26
43 -11 20 -22 37 -25 37 -3 0 -11 15 -19 33 -8 17 -24 45 -35 62 -12 16 -26
39 -32 50 -54 104 -107 196 -115 200 -5 4 -9 15 -9 26 0 10 -3 19 -7 19 -5 0
-30 37 -58 81 -27 44 -58 90 -67 101 -10 12 -18 25 -18 30 0 8 -68 117 -80
128 -3 3 -20 24 -39 48 -38 49 -52 52 -80 16 -13 -17 -25 -23 -33 -18 -27 17
-38 13 -24 -9 34 -54 319 -539 471 -802 92 -159 259 -447 370 -640 362 -625
505 -878 505 -892 0 -7 -6 -16 -14 -19 -7 -3 -142 11 -299 30 l-286 34 -218
-87 c-246 -99 -260 -104 -260 -86 0 8 7 11 15 7 9 -3 13 -1 9 5 -4 6 -1 13 5
16 10 3 10 9 2 24 -8 13 -9 25 -2 36 6 11 5 17 -2 17 -6 0 -8 4 -5 10 3 5 0
33 -8 62 -8 29 -13 64 -12 78 2 14 -1 30 -5 35 -4 6 -8 33 -9 60 -1 28 -6 52
-12 53 -5 2 -9 17 -9 34 0 17 -8 37 -17 45 -16 13 -16 14 -2 10 13 -4 16 -1
11 16 -2 12 -9 28 -15 34 -5 7 -7 21 -4 32 5 20 -12 97 -27 120 -6 9 -6 16 0
18 6 2 9 49 8 116 -1 65 2 117 8 125 7 8 7 12 -1 12 -7 0 -9 5 -6 10 4 6 12 7
18 3 7 -4 6 1 -2 10 -12 15 -11 20 5 38 17 19 19 19 25 2 4 -10 8 -12 8 -5 1
7 -31 72 -71 145 -132 244 -790 1391 -854 1489 -35 53 -80 127 -100 163 -33
59 -38 65 -48 49 -12 -21 -23 -580 -25 -1305 -1 -588 -11 -948 -25 -943 -6 2
-115 17 -243 34 l-231 31 -141 -61 c-78 -33 -146 -60 -151 -60 -6 0 -2 12 7
27 15 23 18 49 17 163 0 74 -4 191 -8 260 -5 69 -10 985 -11 2035 -2 1287 -6
1923 -13 1949 -6 21 -18 46 -26 55 -15 14 -16 12 -16 -19 0 -19 -7 -372 -15
-785 -16 -828 -29 -1570 -45 -2510 -12 -760 -17 -975 -22 -981 -2 -2 -31 1
-64 6 -32 5 -157 23 -278 40 l-218 30 -102 -44 c-305 -133 -429 -186 -433
-186 -2 0 15 17 39 37 56 49 156 170 212 258 46 73 90 188 99 265 11 85 26
245 32 335 3 50 7 108 10 130 2 22 6 146 10 275 3 129 8 280 10 335 10 211 15
312 20 375 15 204 32 486 45 745 5 110 14 283 20 385 5 102 14 286 20 410 6
124 15 288 20 365 15 216 13 285 -9 321 -10 16 -87 91 -172 165 -84 73 -173
152 -197 174 l-44 41 72 52 c70 52 330 257 422 335 l48 40 52 -16 c159 -48
279 -77 290 -71 6 4 8 3 4 -4 -6 -11 32 -24 164 -57 36 -9 99 -27 140 -40 41
-13 212 -64 380 -114 168 -49 312 -92 321 -96 13 -5 19 3 28 32 l11 38 -5 -46
c-6 -62 -14 -1734 -9 -1687 4 30 15 45 57 80 196 162 498 439 490 450 -3 7 -1
8 6 4 6 -4 44 23 94 68 133 122 463 370 616 464 l104 64 186 -52 c320 -90 545
-157 584 -174 l39 -17 -18 30 c-10 16 -58 85 -108 153 -92 126 -345 498 -366
540 -25 47 11 -2 128 -177 66 -99 144 -211 173 -250 29 -38 86 -119 127 -180
40 -60 75 -111 76 -113 3 -3 526 -152 533 -152 7 0 -76 115 -124 171 -53 64
-191 207 -508 529 -370 377 -504 518 -600 630 -49 58 -109 127 -134 155 -25
27 -33 38 -17 25 16 -14 88 -92 161 -175 73 -82 327 -347 565 -589 428 -435
577 -596 646 -701 20 -30 44 -57 53 -59 9 -3 70 -19 136 -37 66 -17 124 -35
129 -40 6 -5 -51 -70 -143 -163 -92 -92 -152 -160 -148 -168 6 -15 246 -297
268 -315 8 -6 50 -13 94 -14 77 -2 80 -1 87 22 5 13 28 111 54 218 l46 193
-159 162 c-157 159 -427 444 -615 647 l-97 106 -18 125 -18 125 -100 68 c-55
38 -215 152 -355 254 -318 230 -670 463 -670 442 0 -8 127 -224 292 -498 11
-18 17 -33 14 -33 -3 0 -31 44 -63 98 -62 105 -248 410 -277 455 -23 35 -16
34 53 -5z m-788 -136 c25 -97 59 -205 104 -337 6 -19 6 -19 -5 -2 -27 43 -152
456 -149 494 1 16 20 -42 50 -155z m-987 69 c3 -5 -38 -35 -92 -66 -53 -32
-114 -68 -134 -81 -21 -13 -41 -24 -45 -24 -5 0 -19 -9 -33 -20 -25 -20 -50
-26 -50 -12 0 7 73 53 250 155 52 31 96 56 97 56 1 1 4 -3 7 -8z m1496 -46 c0
-29 -25 -44 -43 -26 -9 9 -6 16 13 31 31 24 30 25 30 -5z m-2250 -120 c0 -2
-6 -8 -13 -14 -10 -8 -14 -7 -14 2 0 8 6 14 14 14 7 0 13 -1 13 -2z m386 -44
c-4 -5 -3 -11 1 -14 5 -2 3 -2 -4 -1 -6 2 -14 -4 -17 -12 -3 -8 -12 -14 -20
-14 -8 0 -17 -6 -19 -12 -3 -8 -6 -6 -6 5 -1 11 6 17 21 17 12 0 18 3 15 7 -4
3 1 12 11 19 20 16 25 17 18 5z m911 -253 c-3 -8 -6 -5 -6 6 -1 11 2 17 5 13
3 -3 4 -12 1 -19z m-10 -50 c-3 -8 -6 -5 -6 6 -1 11 2 17 5 13 3 -3 4 -12 1
-19z m1582 -45 c40 -63 68 -112 58 -102 -9 7 -82 121 -97 150 -20 38 -4 18 39
-48z m-1592 5 c-3 -8 -6 -5 -6 6 -1 11 2 17 5 13 3 -3 4 -12 1 -19z m-2004
-72 c17 -13 16 -16 -18 -42 -67 -51 -227 -238 -311 -366 -154 -232 -264 -469
-358 -770 -186 -599 -236 -1168 -160 -1833 95 -847 400 -1598 915 -2255 134
-172 397 -443 564 -582 133 -112 160 -136 100 -93 -44 31 -234 195 -303 259
-24 23 -48 40 -55 38 -7 -2 -9 0 -4 4 9 10 -63 85 -75 78 -5 -3 -7 -1 -6 4 2
5 -15 27 -37 48 -21 22 -36 33 -31 26 4 -7 -15 10 -42 37 -38 38 -55 48 -71
44 -12 -3 -21 -1 -21 6 0 6 -7 11 -15 11 -8 0 -15 4 -15 8 0 4 -17 14 -37 21
-21 8 -40 17 -43 20 -17 22 -57 37 -77 30 -17 -6 -21 -5 -16 7 3 9 -2 14 -16
14 -12 0 -21 5 -21 11 0 6 -7 8 -16 5 -9 -3 -27 3 -41 14 -14 11 -33 20 -43
20 -20 0 -105 44 -127 65 -8 8 -25 15 -39 15 -14 0 -27 7 -30 15 -4 8 -14 15
-24 15 -9 0 -22 10 -29 23 l-12 22 5 -24 c4 -20 -1 -17 -36 20 -23 24 -39 36
-35 27 3 -10 4 -18 2 -18 -10 0 -43 39 -37 44 3 3 -2 6 -11 6 -9 0 -17 6 -17
13 0 7 -9 18 -21 25 -15 10 -19 10 -14 1 5 -7 3 -10 -6 -7 -8 3 -13 11 -11 18
2 8 -3 10 -14 6 -10 -4 -20 -2 -24 4 -4 6 -15 13 -26 14 -39 6 -264 427 -372
696 -196 492 -295 981 -295 1465 1 481 65 829 239 1287 139 365 331 678 591
963 209 229 537 555 558 555 11 0 28 -7 38 -14z m2034 -163 c-3 -10 -5 -2 -5
17 0 19 2 27 5 18 2 -10 2 -26 0 -35z m-10 -90 c-3 -10 -5 -2 -5 17 0 19 2 27
5 18 2 -10 2 -26 0 -35z m1880 -81 c26 -32 64 -78 83 -102 19 -24 70 -87 114
-139 95 -115 109 -137 104 -152 -5 -16 -227 260 -337 419 -35 51 -17 38 36
-26z m-1133 -588 c3 -8 2 -12 -4 -9 -6 3 -10 10 -10 16 0 14 7 11 14 -7z
m1883 -666 c-2 -29 -3 -8 -3 47 0 55 1 79 3 53 2 -26 2 -71 0 -100z m-40 -125
c-3 -10 -5 -4 -5 12 0 17 2 24 5 18 2 -7 2 -21 0 -30z m62 -165 c10 -171 11
-180 57 -315 46 -137 188 -506 302 -783 109 -266 274 -664 298 -720 23 -53 24
-54 23 -20 -1 19 0 163 2 320 2 237 3 267 10 180 4 -58 5 -225 2 -373 l-6
-267 -64 152 c-36 84 -113 268 -173 408 -111 263 -228 561 -307 780 -63 176
-130 371 -137 395 -2 11 -3 -99 -2 -245 4 -309 6 -319 105 -620 114 -344 374
-995 414 -1038 20 -22 28 -24 94 -20 l73 5 74 -94 c65 -80 72 -93 53 -93 -19
0 -140 18 -244 35 -35 6 -28 -5 -158 276 -80 173 -279 670 -343 859 -73 215
-93 310 -94 453 -2 197 4 908 8 905 1 -2 7 -83 13 -180z m431 -38 c21 -36 91
-162 155 -280 65 -118 160 -291 213 -385 117 -210 181 -339 178 -362 -4 -26
-40 -27 -201 -4 -78 12 -158 21 -177 21 -34 0 -35 2 -95 123 -112 223 -406
877 -399 885 3 2 24 -38 47 -90 105 -228 354 -713 391 -759 31 -40 57 -59 115
-86 75 -34 179 -65 267 -78 l47 -7 -47 88 c-26 49 -85 155 -131 237 -85 151
-303 551 -387 712 -52 98 -37 89 24 -15z m-1003 -102 c-3 -8 -6 -5 -6 6 -1 11
2 17 5 13 3 -3 4 -12 1 -19z m-10 -50 c-3 -7 -5 -2 -5 12 0 14 2 19 5 13 2 -7
2 -19 0 -25z m540 -520 c-2 -13 -4 -5 -4 17 -1 22 1 32 4 23 2 -10 2 -28 0
-40z m-1599 -1624 c-3 -19 -28 -32 -28 -14 0 6 5 8 11 4 8 -5 10 1 7 20 -4 18
-2 24 4 18 6 -6 8 -18 6 -28z m1682 -1448 c0 -2 -8 -10 -17 -17 -16 -13 -17
-12 -4 4 13 16 21 21 21 13z m-3919 -323 c13 -16 12 -17 -3 -4 -17 13 -22 21
-14 21 2 0 10 -8 17 -17z m40 -30 c13 -16 12 -17 -3 -4 -17 13 -22 21 -14 21
2 0 10 -8 17 -17z m1296 -569 c-3 -3 -12 -4 -19 -1 -8 3 -5 6 6 6 11 1 17 -2
13 -5z"/>
<path d="M4728 8923 c7 -3 16 -2 19 1 4 3 -2 6 -13 5 -11 0 -14 -3 -6 -6z"/>
<path d="M4768 8923 c7 -3 16 -2 19 1 4 3 -2 6 -13 5 -11 0 -14 -3 -6 -6z"/>
<path d="M4723 8903 c9 -2 23 -2 30 0 6 3 -1 5 -18 5 -16 0 -22 -2 -12 -5z"/>
<path d="M4198 8793 c7 -3 16 -2 19 1 4 3 -2 6 -13 5 -11 0 -14 -3 -6 -6z"/>
<path d="M4952 8230 c0 -19 2 -27 5 -17 2 9 2 25 0 35 -3 9 -5 1 -5 -18z"/>
<path d="M6719 6808 c-46 -51 -143 -156 -214 -233 -72 -77 -254 -275 -405
-440 -151 -165 -356 -389 -457 -497 -101 -108 -183 -199 -183 -202 0 -5 76
-126 86 -135 3 -3 2 2 -1 11 -4 10 4 23 25 38 17 12 60 59 96 103 52 65 173
200 269 301 6 6 51 56 100 111 50 55 94 105 100 111 45 50 153 171 168 188 9
12 25 30 35 41 389 436 432 495 456 624 8 39 13 71 11 71 -1 0 -40 -42 -86
-92z"/>
<path d="M2030 3041 c0 -6 4 -13 10 -16 6 -3 7 1 4 9 -7 18 -14 21 -14 7z"/>
<path d="M2050 2998 c0 -6 3 -8 7 -5 3 4 17 0 29 -8 15 -9 25 -11 29 -5 4 6
11 7 17 4 6 -4 8 -2 4 4 -3 6 -15 9 -26 7 -11 -2 -20 -1 -20 3 0 4 -9 8 -20 9
-11 1 -20 -3 -20 -9z"/>
<path d="M7491 5874 c0 -11 3 -14 6 -6 3 7 2 16 -1 19 -3 4 -6 -2 -5 -13z"/>
</g>
</svg>
